<svg width="64" height="64" viewBox="0 0 64 64" fill="none" xmlns="http://www.w3.org/2000/svg">
<path d="M52 4H16C14.9391 4 13.9217 4.42143 13.1716 5.17157C12.4214 5.92172 12 6.93913 12 8V16H8V20H12V30H8V34H12V44H8V48H12V56C12 57.0609 12.4214 58.0783 13.1716 58.8284C13.9217 59.5786 14.9391 60 16 60H52C53.0609 60 54.0783 59.5786 54.8284 58.8284C55.5786 58.0783 56 57.0609 56 56V8C56 6.93913 55.5786 5.92172 54.8284 5.17157C54.0783 4.42143 53.0609 4 52 4ZM52 56H16V48H20V44H16V34H20V30H16V20H20V16H16V8H52V56Z" fill="white"/>
<path d="M28 16H44V20H28V16ZM28 30H44V34H28V30ZM28 44H44V48H28V44Z" fill="white"/>
</svg>
