<svg width="64" height="64" viewBox="0 0 64 64" fill="none" xmlns="http://www.w3.org/2000/svg">
<path d="M48 42H52V52H48V42ZM40 32H44V52H40V32ZM22 52C19.3488 51.9968 16.8071 50.9422 14.9324 49.0676C13.0578 47.1929 12.0032 44.6512 12 42H16C16 43.1867 16.3519 44.3467 17.0112 45.3334C17.6705 46.3201 18.6075 47.0892 19.7039 47.5433C20.8003 47.9974 22.0067 48.1162 23.1705 47.8847C24.3344 47.6532 25.4035 47.0818 26.2426 46.2426C27.0818 45.4035 27.6532 44.3344 27.8847 43.1705C28.1162 42.0067 27.9974 40.8003 27.5433 39.7039C27.0892 38.6075 26.3201 37.6705 25.3334 37.0112C24.3467 36.3519 23.1867 36 22 36V32C24.6522 32 27.1957 33.0536 29.0711 34.9289C30.9464 36.8043 32 39.3478 32 42C32 44.6522 30.9464 47.1957 29.0711 49.0711C27.1957 50.9464 24.6522 52 22 52Z" fill="white"/>
<path d="M56 4H8C6.93946 4.00106 5.92266 4.42283 5.17274 5.17274C4.42283 5.92266 4.00106 6.93946 4 8V56C4.00106 57.0605 4.42283 58.0773 5.17274 58.8273C5.92266 59.5772 6.93946 59.9989 8 60H56C57.0604 59.9984 58.0769 59.5765 58.8267 58.8267C59.5765 58.0769 59.9984 57.0604 60 56V8C59.9989 6.93946 59.5772 5.92266 58.8273 5.17274C58.0773 4.42283 57.0605 4.00106 56 4ZM56 22H28V8H56V22ZM24 8V22H8V8H24ZM8 56V26H56L56.004 56H8Z" fill="white"/>
</svg>
