<svg width="65" height="64" viewBox="0 0 65 64" fill="none" xmlns="http://www.w3.org/2000/svg">
<path d="M48.5 42H52.5V52H48.5V42ZM40.5 32H44.5V52H40.5V32ZM22.5 52C19.8488 51.9968 17.3071 50.9422 15.4324 49.0676C13.5578 47.1929 12.5032 44.6512 12.5 42H16.5C16.5 43.1867 16.8519 44.3467 17.5112 45.3334C18.1705 46.3201 19.1075 47.0892 20.2039 47.5433C21.3003 47.9974 22.5067 48.1162 23.6705 47.8847C24.8344 47.6532 25.9035 47.0818 26.7426 46.2426C27.5818 45.4035 28.1532 44.3344 28.3847 43.1705C28.6162 42.0067 28.4974 40.8003 28.0433 39.7039C27.5892 38.6075 26.8201 37.6705 25.8334 37.0112C24.8467 36.3519 23.6867 36 22.5 36V32C25.1522 32 27.6957 33.0536 29.5711 34.9289C31.4464 36.8043 32.5 39.3478 32.5 42C32.5 44.6522 31.4464 47.1957 29.5711 49.0711C27.6957 50.9464 25.1522 52 22.5 52Z" fill="white"/>
<path d="M56.5 4H8.5C7.43946 4.00106 6.42266 4.42283 5.67274 5.17274C4.92283 5.92266 4.50106 6.93946 4.5 8V56C4.50106 57.0605 4.92283 58.0773 5.67274 58.8273C6.42266 59.5772 7.43946 59.9989 8.5 60H56.5C57.5604 59.9984 58.5769 59.5765 59.3267 58.8267C60.0765 58.0769 60.4984 57.0604 60.5 56V8C60.4989 6.93946 60.0772 5.92266 59.3273 5.17274C58.5773 4.42283 57.5605 4.00106 56.5 4ZM56.5 22H28.5V8H56.5V22ZM24.5 8V22H8.5V8H24.5ZM8.5 56V26H56.5L56.504 56H8.5Z" fill="white"/>
</svg>
