<svg width="32" height="32" viewBox="0 0 32 32" fill="none" xmlns="http://www.w3.org/2000/svg">
<path d="M7.99984 21.3338L13.9998 27.3338L19.3332 22.0005C19.4207 21.9129 19.5246 21.8434 19.639 21.796C19.7534 21.7486 19.876 21.7242 19.9998 21.7242C20.1237 21.7242 20.2463 21.7486 20.3606 21.796C20.475 21.8434 20.579 21.9129 20.6665 22.0005M7.99984 21.3338L4.6665 18.0005L9.99984 12.6671C10.0874 12.5796 10.1569 12.4756 10.2043 12.3613C10.2516 12.2469 10.276 12.1243 10.276 12.0004C10.276 11.8766 10.2516 11.754 10.2043 11.6396C10.1569 11.5253 10.0874 11.4213 9.99984 11.3338M7.99984 21.3338L10.6665 18.6671M20.6665 22.0005C20.754 22.088 20.858 22.1575 20.9724 22.2049C21.0868 22.2523 21.2094 22.2767 21.3332 22.2767C21.457 22.2767 21.5796 22.2523 21.694 22.2049C21.8084 22.1575 21.9123 22.088 21.9998 22.0005L25.0572 18.9431C25.3071 18.6931 25.4476 18.354 25.4476 18.0005C25.4476 17.6469 25.3071 17.3078 25.0572 17.0578L22.2758 14.2764C22.0259 14.0264 21.8855 13.6873 21.8855 13.3338C21.8855 12.9802 22.0259 12.6412 22.2758 12.3911L27.0572 7.60978C27.3071 7.35975 27.4476 7.02067 27.4476 6.66712C27.4476 6.31356 27.3071 5.97449 27.0572 5.72445L26.2758 4.94312C26.0258 4.69315 25.6867 4.55273 25.3332 4.55273C24.9796 4.55273 24.6405 4.69315 24.3905 4.94312L19.6092 9.72445C19.3591 9.97441 19.0201 10.1148 18.6665 10.1148C18.313 10.1148 17.9739 9.97441 17.7238 9.72445L14.9425 6.94312C14.6925 6.69315 14.3534 6.55273 13.9998 6.55273C13.6463 6.55273 13.3072 6.69315 13.0572 6.94312L9.99984 10.0004C9.91227 10.088 9.84281 10.1919 9.79542 10.3063C9.74803 10.4207 9.72364 10.5433 9.72364 10.6671C9.72364 10.7909 9.74803 10.9135 9.79542 11.0279C9.84281 11.1423 9.91227 11.2462 9.99984 11.3338M20.6665 22.0005L9.99984 11.3338" stroke="white" stroke-width="2" stroke-linecap="round" stroke-linejoin="round"/>
</svg>
