<svg width="65" height="64" viewBox="0 0 65 64" fill="none" xmlns="http://www.w3.org/2000/svg">
<path d="M48.4996 49.92C51.8777 50.196 55.2761 49.7609 58.4756 48.6427C58.5978 47.137 58.2911 45.6276 57.5912 44.289C56.8913 42.9504 55.8266 41.8373 54.5205 41.0785C53.2143 40.3196 51.72 39.9461 50.2105 40.0012C48.7009 40.0562 47.2377 40.5375 45.9903 41.3893M48.497 49.9173L48.4996 50C48.4996 50.6 48.4676 51.192 48.401 51.776C43.5619 54.5523 38.0785 56.0089 32.4996 56C26.713 56 21.281 54.464 16.5983 51.776C16.5297 51.1589 16.4968 50.5383 16.4996 49.9173M48.4996 49.9173C48.4893 46.895 47.6189 43.938 45.9903 41.392M45.9903 41.392C44.5447 39.1248 42.5506 37.2588 40.1925 35.9667C37.8344 34.6746 35.1885 33.9982 32.4996 34C29.8112 33.9986 27.1658 34.6753 24.8082 35.9673C22.4507 37.2594 20.457 39.1251 19.0116 41.392M19.0116 41.392C17.7642 40.5409 16.3013 40.0603 14.7922 40.0057C13.2831 39.9511 11.7893 40.3247 10.4836 41.0834C9.17795 41.8421 8.11367 42.9549 7.41384 44.293C6.71402 45.6312 6.40724 47.1401 6.52897 48.6453C9.72606 49.7698 13.1253 50.2034 16.5023 49.9173M19.009 41.392C17.3813 43.9383 16.5119 46.8953 16.5023 49.9173M40.4996 18C40.4996 20.1217 39.6568 22.1566 38.1565 23.6569C36.6562 25.1571 34.6214 26 32.4996 26C30.3779 26 28.3431 25.1571 26.8428 23.6569C25.3425 22.1566 24.4996 20.1217 24.4996 18C24.4996 15.8783 25.3425 13.8434 26.8428 12.3431C28.3431 10.8429 30.3779 10 32.4996 10C34.6214 10 36.6562 10.8429 38.1565 12.3431C39.6568 13.8434 40.4996 15.8783 40.4996 18V18ZM56.4996 26C56.4996 26.7879 56.3444 27.5681 56.0429 28.2961C55.7414 29.0241 55.2994 29.6855 54.7423 30.2426C54.1851 30.7998 53.5237 31.2417 52.7957 31.5433C52.0678 31.8448 51.2876 32 50.4996 32C49.7117 32 48.9315 31.8448 48.2035 31.5433C47.4756 31.2417 46.8141 30.7998 46.257 30.2426C45.6998 29.6855 45.2579 29.0241 44.9564 28.2961C44.6548 27.5681 44.4996 26.7879 44.4996 26C44.4996 24.4087 45.1318 22.8826 46.257 21.7574C47.3822 20.6321 48.9083 20 50.4996 20C52.0909 20 53.6171 20.6321 54.7423 21.7574C55.8675 22.8826 56.4996 24.4087 56.4996 26V26ZM20.4996 26C20.4996 26.7879 20.3444 27.5681 20.0429 28.2961C19.7414 29.0241 19.2994 29.6855 18.7423 30.2426C18.1851 30.7998 17.5237 31.2417 16.7957 31.5433C16.0678 31.8448 15.2876 32 14.4996 32C13.7117 32 12.9315 31.8448 12.2035 31.5433C11.4756 31.2417 10.8141 30.7998 10.257 30.2426C9.69984 29.6855 9.25789 29.0241 8.95636 28.2961C8.65483 27.5681 8.49963 26.7879 8.49963 26C8.49963 24.4087 9.13178 22.8826 10.257 21.7574C11.3822 20.6321 12.9083 20 14.4996 20C16.0909 20 17.6171 20.6321 18.7423 21.7574C19.8675 22.8826 20.4996 24.4087 20.4996 26V26Z" stroke="white" stroke-width="4" stroke-linecap="round" stroke-linejoin="round"/>
</svg>
