<svg width="128" height="30" viewBox="0 0 128 30" fill="none" xmlns="http://www.w3.org/2000/svg">
<path d="M8.55735 10.2401V7.88863H15.9972V10.2401V16.2975H13.4795V14.1279C12.2741 15.7708 10.4722 16.5985 8.0802 16.5985C5.77605 16.5985 3.85489 15.7959 2.31042 14.1969C0.765955 12.5979 0 10.6289 0 8.30249C0 5.96982 0.791068 4.00711 2.36693 2.40811C3.94906 0.8091 5.92673 0.00646973 8.30622 0.00646973C10.1395 0.00646973 11.7718 0.533194 13.2159 1.58666C14.6599 2.64012 15.5828 3.96323 15.9972 5.56223H13.2033C12.8706 4.69062 12.249 3.97576 11.3512 3.41141C10.4534 2.84705 9.43631 2.56487 8.30622 2.56487C6.62991 2.56487 5.26123 3.10415 4.21275 4.18897C3.16427 5.27378 2.63062 6.64078 2.63062 8.30249C2.63062 10.0081 3.15799 11.4127 4.21903 12.5101C5.28007 13.6074 6.64246 14.153 8.30622 14.153C9.68117 14.153 10.8364 13.8081 11.7844 13.1246C12.7324 12.4411 13.2598 11.4817 13.3665 10.2464H8.55735V10.2401Z" fill="#468FBA"/>
<path d="M29.1061 16.2973L24.209 10.4719H21.7166V16.2973H19.0859V0.294678H21.7166H25.0378C26.4692 0.294678 27.6872 0.796326 28.6855 1.79335C29.6837 2.79038 30.186 4.00688 30.186 5.43658C30.186 6.43988 29.8909 7.36793 29.307 8.21447C28.7169 9.061 27.9572 9.68179 27.028 10.0768L32.2453 16.291H29.1061V16.2973ZM21.7166 2.7653V8.11413H25.0378C25.741 8.11413 26.3374 7.85703 26.8208 7.33657C27.3105 6.81611 27.5554 6.18905 27.5554 5.43658C27.5554 4.69038 27.3105 4.05704 26.8208 3.53658C26.3311 3.01612 25.7347 2.75903 25.0378 2.75903H21.7166V2.7653Z" fill="#468FBA"/>
<path d="M43.9355 16.2973L42.8368 13.0742H36.1755L35.1019 16.2973H32.239L37.9397 0.294678H41.0977L46.7733 16.2973H43.9355ZM37.0231 10.6036H41.9892L39.5156 3.29203L37.0231 10.6036Z" fill="#468FBA"/>
<path d="M57.5282 0.294678H60.1588V16.2973H58.0995L51.3503 5.44286V16.2973H48.7197V0.294678H50.779L57.5282 11.1491V0.294678Z" fill="#468FBA"/>
<path d="M70.3422 0.294678C72.5396 0.294678 74.3666 1.06597 75.8232 2.60227C77.2797 4.13857 78.008 6.03856 78.008 8.29598C78.008 10.5346 77.2797 12.4283 75.8232 13.9772C74.3666 15.526 72.5396 16.2973 70.3422 16.2973H64.5097H63.593V0.294678H66.2236H70.3422ZM70.3422 13.7828C71.8553 13.7828 73.0858 13.2623 74.0401 12.2277C74.9944 11.193 75.4716 9.88244 75.4716 8.29598C75.4716 6.69697 74.9944 5.38015 74.0401 4.35177C73.0858 3.32338 71.8553 2.80919 70.3422 2.80919H66.2236V13.7828H70.3422Z" fill="#468FBA"/>
<path d="M88.2166 16.592C85.8057 16.592 83.8092 15.7957 82.2208 14.2029C80.6324 12.6102 79.8413 10.6412 79.8413 8.29602C79.8413 5.95081 80.6324 3.98184 82.2208 2.3891C83.8092 0.796366 85.8057 0 88.2166 0C90.0624 0 91.701 0.539277 93.1262 1.61155C94.5514 2.68383 95.4743 4.0759 95.8824 5.78151H93.1137C92.7809 4.80956 92.1594 4.02573 91.2616 3.43629C90.3638 2.84686 89.3467 2.55841 88.2166 2.55841C86.5089 2.55841 85.1214 3.09768 84.0603 4.1825C82.9993 5.26731 82.4719 6.63431 82.4719 8.29602C82.4719 9.95773 82.9993 11.331 84.0603 12.4095C85.1214 13.4944 86.5026 14.0336 88.2166 14.0336C89.3467 14.0336 90.3575 13.7389 91.2616 13.1557C92.1594 12.5663 92.7809 11.7888 93.1137 10.8105H95.8824C95.4869 12.5036 94.5702 13.8894 93.1388 14.968C91.701 16.0528 90.0624 16.592 88.2166 16.592Z" fill="#468FBA"/>
<path d="M98.1738 0.294678H100.804V16.2973H98.1738V0.294678Z" fill="#468FBA"/>
<path d="M113.732 0.294678V2.80919H109.682V16.2973H107.052V2.80919H102.977V0.294678H109.682H113.732Z" fill="#468FBA"/>
<path d="M127.764 0.294719L122.408 9.09239V16.2911H119.778V9.06731L114.422 0.288452H117.423L121.083 6.55279L124.769 0.288452H127.764V0.294719Z" fill="#468FBA"/>
<path d="M31.1719 28.9953L28.7297 26.3429H27.0722V28.9953H26.5574V22.5303H27.0722H28.8803C29.4266 22.5303 29.8974 22.7185 30.2867 23.0884C30.6759 23.4584 30.8706 23.9099 30.8706 24.4429C30.8706 24.8881 30.7262 25.2831 30.4311 25.628C30.136 25.9792 29.7656 26.1986 29.3136 26.299L31.8123 28.9953H31.1719ZM27.0785 22.9944V25.8851H28.8866C29.2947 25.8851 29.64 25.7409 29.9351 25.4587C30.2239 25.1765 30.3683 24.8379 30.3683 24.4429C30.3683 24.0415 30.2239 23.7029 29.9351 23.4145C29.6463 23.1323 29.2947 22.9881 28.8866 22.9881H27.0785V22.9944Z" fill="white"/>
<path d="M35.0832 28.5375H38.348V29.0015H34.7944H34.5747V22.5365H35.0895H38.304V23.0005H35.0895V25.515H38.0592V25.9791H35.0895V28.5375H35.0832Z" fill="white"/>
<path d="M46.1016 28.9953L45.4424 27.3524H42.0521L41.3866 28.9953H40.8467L43.4773 22.5303H44.0172L46.6416 28.9953H46.1016ZM42.2405 26.8947H45.2603L43.7473 23.1323L42.2405 26.8947Z" fill="white"/>
<path d="M50.0822 28.5375H53.2779V29.0015H49.5674V22.5365H50.0822V28.5375Z" fill="white"/>
<path d="M61.314 28.5375H64.5787V29.0015H61.0252H60.8054V22.5365H61.3202H64.5347V23.0005H61.3202V25.515H64.2899V25.9791H61.3202V28.5375H61.314Z" fill="white"/>
<path d="M69.6954 29.1019C69.0111 29.1019 68.446 28.9326 68.0066 28.594C67.5671 28.2554 67.3411 27.7913 67.3411 27.2082H67.8622C67.8622 27.6534 68.0254 27.9983 68.3581 28.2491C68.6909 28.4999 69.1367 28.6253 69.6892 28.6253C70.16 28.6253 70.5493 28.5125 70.8506 28.2867C71.152 28.061 71.309 27.7662 71.309 27.4026C71.309 27.2458 71.2776 27.1078 71.2148 26.9699C71.152 26.8382 71.0767 26.7253 70.9888 26.6438C70.9009 26.556 70.7753 26.4682 70.6121 26.3804C70.4488 26.2927 70.3044 26.2237 70.1789 26.1735C70.0533 26.1234 69.8838 26.0606 69.664 25.9917C68.9985 25.7534 68.5653 25.5715 68.3644 25.4587C67.8119 25.1326 67.5294 24.6748 67.5294 24.0854C67.5294 23.59 67.724 23.195 68.1196 22.894C68.5151 22.593 68.9923 22.4425 69.551 22.4425C70.1349 22.4425 70.6246 22.6055 71.0202 22.9253C71.422 23.2514 71.6229 23.6778 71.6229 24.2045H71.1081C71.1081 23.8158 70.9637 23.5022 70.6748 23.264C70.386 23.0257 70.0094 22.9065 69.551 22.9065C69.1053 22.9065 68.7411 23.0131 68.4649 23.2326C68.1886 23.4521 68.0442 23.7343 68.0442 24.0791C68.0442 24.2422 68.0756 24.3864 68.1447 24.5243C68.2137 24.6623 68.2891 24.7689 68.3644 24.8567C68.4461 24.9445 68.5716 25.0323 68.7474 25.12C68.9232 25.2078 69.0676 25.2768 69.1806 25.3207C69.2936 25.3646 69.4694 25.4273 69.7017 25.5151C70.3798 25.7659 70.8255 25.9603 71.0453 26.0983C71.5664 26.4243 71.8301 26.8633 71.8301 27.4088C71.8301 27.9167 71.6229 28.3243 71.2085 28.6379C70.7941 28.9451 70.2919 29.1019 69.6954 29.1019Z" fill="white"/>
<path d="M78.6171 22.5303V22.9944H76.6833V28.9953H76.1622V22.9944H74.2285V22.5303H76.6896H78.6171Z" fill="white"/>
<path d="M85.6927 28.9953L85.0335 27.3524H81.6432L80.9777 28.9953H80.4377L83.0684 22.5303H83.6083L86.2326 28.9953H85.6927ZM81.8315 26.8947H84.8514L83.3383 23.1323L81.8315 26.8947Z" fill="white"/>
<path d="M92.4542 22.5303V22.9944H90.5205V28.9953H89.9994V22.9944H88.0657V22.5303H90.5268H92.4542Z" fill="white"/>
<path d="M95.9641 28.5375H99.2288V29.0015H95.6753H95.4556V22.5365H95.9704H99.1849V23.0005H95.9704V25.515H98.94V25.9791H95.9704V28.5375H95.9641Z" fill="white"/>
</svg>
