<svg width="92" height="80" viewBox="0 0 92 80" fill="none" xmlns="http://www.w3.org/2000/svg">
<path d="M86.6017 31.7761C87.3193 32.9237 88.5538 33.8665 89.1176 34.3742C89.3483 34.2548 89.4935 34.2164 89.5234 34.242C89.5447 34.259 89.3867 34.3998 89.2585 34.5107C89.2714 34.5235 89.2842 34.5363 89.2927 34.5449C89.7113 34.9885 91.3216 36.614 91.7146 37.689C91.6249 36.0978 89.6344 32.416 84.8419 29.1012C85.6876 29.4852 86.5846 29.6132 87.1228 29.579C87.0417 28.9988 87.1228 28.8538 87.2254 28.8581C87.3065 28.8623 87.4261 29.2676 87.4902 29.5151C88.0198 29.3913 89.3739 29.1951 90.1299 29.6046C89.0621 28.7173 86.8238 27.9067 84.3208 28.2565C84.9829 27.5057 83.6972 25.0526 82.6891 24.5791C83.1034 25.3726 82.8856 25.9016 83.0009 26.3965C83.1163 26.8914 83.5861 27.783 83.5861 27.783C83.5861 27.783 81.7494 26.2344 80.2501 25.4067C78.7509 24.5791 76.7903 24.1781 76.692 24.4212C76.5938 24.6644 77.1875 24.1269 78.832 25.5091C80.0024 26.4946 80.8012 26.8786 81.1642 27.0193C80.5961 26.8359 79.0328 26.3581 77.6787 26.1832C75.983 25.9656 74.3214 26.1277 74.3257 26.3623C74.33 26.597 75.0476 26.1149 76.5639 26.8018C77.0722 27.0321 77.7556 27.2369 78.4433 27.4076C78.5501 27.1772 78.6612 27.0279 78.7252 27.0407C78.7808 27.0492 78.7808 27.3265 78.7765 27.4886C80.0323 27.783 81.1984 27.9579 81.1984 27.9579C77.7385 27.5953 73.0827 29.3785 73.1553 29.7198C73.1809 29.8393 74.2702 29.7966 75.6669 29.6942C75.778 29.4383 75.9275 29.1098 75.9873 29.0884C76.0513 29.0671 75.9915 29.4255 75.9403 29.6729C76.4016 29.6388 76.8885 29.5961 77.3797 29.5492C77.636 29.0756 77.9094 28.7173 77.982 28.7642C78.0375 28.7983 77.8838 29.225 77.7684 29.5151C77.9607 29.498 78.1529 29.4809 78.3451 29.4596C78.4818 29.2036 78.6868 28.8623 78.7551 28.9519C78.8064 29.0202 78.7039 29.2506 78.6056 29.434C79.3062 29.3657 79.9682 29.2975 80.5064 29.242C74.5222 32.4459 71.404 36.3879 70.507 38.3204C69.5332 40.4109 70.4515 39.8349 70.4515 39.8349C70.4515 39.8349 70.302 41.055 70.8317 41.1873C71.3613 41.3195 71.9935 38.474 73.749 36.1831C75.4832 33.9177 75.7908 32.4118 82.1595 29.1482C82.1466 29.1567 81.0873 30.0057 79.9939 30.9911C80.3142 31.0295 80.5748 31.0978 80.5491 31.1959C80.5235 31.2812 79.9725 31.2898 79.665 31.2898C78.4903 32.3734 77.3926 33.5423 77.6403 33.9135C77.7428 34.0713 78.6398 33.5764 79.5112 33.0346C79.6052 32.6848 79.7333 32.4715 79.8145 32.4886C79.8828 32.5014 79.917 32.5952 79.9426 32.7659C80.6559 32.3094 81.2539 31.8998 81.2539 31.8998C81.2539 31.8998 80.8567 32.7232 80.5876 33.5082C80.9592 33.4314 81.4333 33.4015 81.4419 33.4869C81.4461 33.5509 80.8652 33.7343 80.4808 33.8452C80.4509 33.9391 80.4295 34.0329 80.4082 34.1182C80.4039 34.1353 80.3996 34.1566 80.3954 34.1737C80.7841 34.0969 81.2753 33.986 81.2881 34.0457C81.2966 34.1012 80.7285 34.3017 80.3441 34.4297C80.1434 35.4578 79.9042 37.3733 80.0579 37.4416C80.2288 37.5184 83.1376 32.3947 83.3213 31.3666C83.1291 33.2053 82.719 32.5355 83.0821 35.0995C83.1077 35.2701 83.1248 35.445 83.1419 35.6199C83.5178 35.4493 83.8723 35.3085 83.9065 35.3725C83.9321 35.4237 83.4537 35.6583 83.159 35.7991C83.1675 35.9058 83.1761 36.0082 83.1803 36.1148C83.4195 36.021 83.6374 35.9484 83.6715 35.9996C83.6972 36.038 83.4238 36.1788 83.1889 36.2897C83.1931 36.3879 83.1974 36.486 83.2017 36.5798C83.5391 36.422 84.056 36.0807 84.12 36.1788C84.1927 36.2897 83.6844 36.6737 83.206 36.8529C83.2188 37.5994 83.1846 38.3204 83.1462 38.939C83.4494 38.8964 83.6032 38.9006 83.616 38.9689C83.6246 39.0116 83.3683 39.0841 83.1333 39.1395C83.0735 40.0696 83.0137 40.7266 83.1077 40.8247C83.317 41.038 84.7479 38.6788 84.7607 35.0952C84.7736 31.5116 84.5173 30.8717 84.5173 30.8717C84.5173 30.8717 85.4399 32.2923 86.1618 33.9092C86.4181 33.8154 86.6573 33.7727 86.7128 33.8623C86.7555 33.9305 86.4779 34.0756 86.2728 34.1652C86.4779 34.6473 86.6615 35.1421 86.7939 35.6199C87.4432 35.6583 87.7721 35.6498 87.8234 35.7437C87.8618 35.8077 87.3236 36.0124 86.9349 36.1489C87.4987 38.2522 88.242 40.6284 88.4384 40.7479C88.652 40.8716 89.2842 36.166 86.6017 31.7761Z" fill="#53B0E3"/>
<path d="M21.4968 44.7453C20.6126 42.3733 17.5415 37.4203 11.6298 33.073C12.1638 33.1882 12.8173 33.3333 13.5093 33.4783C13.4153 33.2565 13.3128 32.9706 13.364 32.8981C13.4367 32.7957 13.6331 33.2181 13.7698 33.5338C13.9578 33.5722 14.15 33.6106 14.3379 33.6532C14.2269 33.2991 14.0774 32.7787 14.1286 32.7445C14.197 32.6976 14.4703 33.1498 14.7224 33.73C15.2093 33.8281 15.692 33.922 16.1447 34.0116C16.0977 33.7172 16.0379 33.2863 16.102 33.3162C16.1618 33.3461 16.3113 33.7471 16.4181 34.0585C17.802 34.3145 18.8784 34.4638 18.9041 34.3273C18.9767 33.9305 14.3806 31.3836 10.955 31.4903C10.955 31.4903 12.1082 31.3922 13.3512 31.1618C13.347 30.9741 13.3512 30.6456 13.4025 30.637C13.4666 30.6285 13.5776 30.812 13.6801 31.0978C14.3636 30.9613 15.0384 30.7821 15.5425 30.5603C17.046 29.8947 17.7551 30.5304 17.7593 30.2531C17.7636 29.9758 16.1191 29.6302 14.4404 29.7283C13.0949 29.8051 11.5487 30.2232 10.9891 30.3853C11.3479 30.2531 12.1381 29.8734 13.3042 28.8197C14.9359 27.3393 15.5211 28.0304 15.4271 27.7318C15.3289 27.4331 13.3939 27.7233 11.9032 28.5637C10.4168 29.4041 8.59287 31.0594 8.59287 31.0594C8.59287 31.0594 9.06272 30.0483 9.17805 29.4766C9.29338 28.9007 9.07981 28.2608 9.49414 27.3606C8.49463 27.8256 7.2132 30.6029 7.86673 31.55C5.38931 30.9015 3.17672 31.6439 2.11313 32.5952C2.86063 32.1814 4.20186 32.544 4.72297 32.7403C4.78704 32.4544 4.90664 31.9852 4.9878 31.9894C5.09031 31.9937 5.1672 32.1729 5.08604 32.8512C5.61569 32.945 6.50415 32.8768 7.34135 32.5014C2.59153 35.9655 0.609596 40.1335 0.515625 42.0064C0.904324 40.7692 2.5061 39.003 2.92043 38.5167C2.92897 38.5039 2.94179 38.4911 2.9546 38.4783C2.82646 38.3375 2.67269 38.1583 2.69405 38.137C2.72395 38.1114 2.8649 38.1711 3.09556 38.3332C3.65084 37.7872 4.88101 36.7846 5.59007 35.5005C2.92043 40.4364 3.53124 46.0593 3.74054 45.9313C3.93703 45.8118 4.67598 43.0729 5.24408 40.637C4.85538 40.4364 4.33 40.1506 4.36417 40.0738C4.41543 39.9714 4.74005 40.0098 5.38504 40.0269C5.51745 39.4766 5.70112 38.9092 5.90615 38.3546C5.70539 38.2266 5.43202 38.0346 5.47474 37.9535C5.53027 37.8511 5.76946 37.9279 6.02148 38.0602C6.74335 36.2129 7.65743 34.6259 7.65743 34.6259C7.65743 34.6259 7.40115 35.3597 7.40115 39.596C7.40115 43.8366 8.81071 46.7546 9.02001 46.5243C9.11398 46.4176 9.05418 45.6369 8.99865 44.5277C8.76373 44.4381 8.51171 44.3315 8.52025 44.2803C8.53307 44.1992 8.68684 44.212 8.98584 44.2888C8.95167 43.555 8.9175 42.7018 8.93458 41.8187C8.46045 41.5627 7.9607 41.0593 8.03331 40.9356C8.09738 40.8247 8.60996 41.2769 8.94313 41.4945C8.9474 41.3793 8.95167 41.2641 8.95594 41.1489C8.72528 40.9953 8.45191 40.8033 8.48181 40.7607C8.51598 40.7052 8.73383 40.8119 8.96875 40.9441C8.9773 40.8204 8.98157 40.6967 8.99011 40.573C8.69538 40.3767 8.22553 40.0568 8.25116 40.0013C8.28533 39.933 8.63559 40.1293 9.0072 40.3639C9.02428 40.1591 9.04564 39.9544 9.07127 39.7539C9.43861 36.759 9.03283 37.5098 8.84916 35.3213C9.02428 36.5585 11.8861 42.8852 12.057 42.8084C12.2065 42.7402 11.9801 40.4578 11.7836 39.2206C11.4035 39.0329 10.8396 38.7428 10.8482 38.6788C10.861 38.6105 11.3437 38.7854 11.7281 38.9134C11.7238 38.8921 11.7195 38.8665 11.7153 38.8452C11.6939 38.7385 11.6726 38.6276 11.6427 38.5167C11.2625 38.346 10.6859 38.073 10.6901 38.0005C10.6987 37.9023 11.1643 37.9791 11.5359 38.1071C11.271 37.1558 10.8823 36.1447 10.8823 36.1447C10.8823 36.1447 11.4761 36.6865 12.1809 37.2923C12.2065 37.0918 12.2364 36.9851 12.309 36.9766C12.3859 36.9638 12.514 37.2283 12.6037 37.6506C13.4666 38.3716 14.3507 39.0457 14.4533 38.8665C14.701 38.4484 13.6203 36.968 12.4585 35.5773C12.1552 35.5474 11.6085 35.4834 11.5871 35.3853C11.5615 35.2658 11.8178 35.2104 12.1339 35.1933C11.0575 33.9263 10.011 32.8256 9.99817 32.8128C16.29 37.2667 16.589 39.0713 18.2975 41.9168C18.8357 42.8084 19.2629 43.7555 19.6174 44.6301L21.9282 46.2854C21.9111 46.0081 21.7915 45.5388 21.4968 44.7453Z" fill="#53B0E3"/>
<path d="M20.7751 44.5277C21.3004 44.4211 21.9326 45.3127 21.9326 45.3127C21.9326 45.3127 22.5392 45.9355 22.4879 45.3127L18.9512 43.1284C19.7371 45.0738 20.4163 44.6045 20.7751 44.5277Z" fill="#53B0E3"/>
<path d="M57.2485 42.8298C57.2528 42.8298 57.2528 42.834 57.2571 42.8383C57.6329 43.0985 57.9789 42.7444 58.043 41.9851C58.5897 42.3392 58.9827 42.305 58.8973 40.6711C58.7862 34.0287 66.0348 20.8249 68.4482 18.5681C67.6793 19.4383 66.8079 21.0851 66.163 22.5271C66.415 22.4375 66.714 22.4332 66.7012 22.5441C66.6926 22.6508 66.227 22.847 65.9366 23.0475C65.5692 23.9136 65.3044 24.6516 65.219 25.027C64.9883 26.068 64.0956 27.1132 64.2024 27.1687C64.3092 27.2241 64.3903 27.1047 65.8255 26.1277C65.9579 26.0381 66.0989 25.9229 66.2398 25.7864C66.3594 25.3129 66.3723 24.6303 66.5175 24.6089C66.6584 24.5876 66.714 24.9246 66.6798 25.3001C66.8293 25.1209 66.9745 24.9246 67.124 24.7113C67.0899 24.3914 67.124 24.1695 67.1966 24.1354C67.265 24.1013 67.3162 24.1525 67.3803 24.3274C68.256 22.9537 69.0077 21.1704 69.123 19.9162C69.1359 20.4196 69.2042 21.2515 69.2982 22.1986C69.5203 21.9981 69.7638 21.8018 69.8748 21.9213C70.0158 22.0791 69.8236 22.3863 69.3751 22.9067C69.4349 23.4358 69.4989 23.9818 69.563 24.5108C69.9346 24.1354 70.1396 23.9477 70.2165 24.0117C70.2934 24.0799 69.9901 24.4511 69.5972 24.7839C69.8236 26.5245 70.067 28.0176 70.1781 28.0262C70.4344 28.0475 71.5791 25.62 70.8017 20.539C70.8017 20.539 71.1007 22.5825 71.955 23.824C71.9593 23.8282 71.9635 23.8368 71.9678 23.841C72.2369 23.376 72.6726 22.6636 72.8135 22.7233C73.0058 22.8086 72.5017 23.5979 72.1258 24.0799C72.4078 24.5279 72.7623 25.1593 73.1211 25.8504C73.2321 25.6968 73.3688 25.5347 73.4073 25.5731C73.4543 25.62 73.3603 25.8461 73.2279 26.0594C73.3347 26.2685 73.4457 26.4818 73.5525 26.6994C73.7234 26.4605 73.9412 26.2216 74.0095 26.2728C74.095 26.3367 73.9925 26.661 73.7447 27.0919C74.3128 28.2608 74.8254 29.4255 75.0475 30.1123C75.9787 27.7915 72.6598 20.2063 72.6598 20.2063C72.6598 20.2063 73.2919 21.2045 74.505 21.8999C75.7181 22.5953 76.9611 24.3103 77.2216 24.1738C77.4822 24.0415 76.1666 21.9725 74.7784 20.5262C73.3902 19.08 72.0148 17.7489 70.9427 17.1687C71.3271 17.3309 72.8819 17.3223 73.5311 17.0962C74.1804 16.8701 75.0859 17.1986 75.0347 16.9213C74.9834 16.644 71.3613 15.5476 70.3489 16.1406C70.6608 15.9273 72.1472 13.5041 71.7243 13.2439C71.2417 12.9495 69.6228 15.8078 69.6228 15.8078C69.6228 15.8078 69.2384 14.5067 67.2863 13.005C64.6637 10.9401 63.0833 10.65 63.1431 10.8591C63.2029 11.0681 64.0401 11.5033 64.6423 12.0024C65.0567 12.3437 65.4325 12.9538 65.9238 13.6065C66.0476 13.4828 66.2228 13.3548 66.274 13.3889C66.3338 13.4273 66.2826 13.5894 66.0903 13.8283C66.2697 14.0587 66.462 14.2848 66.6798 14.5067C67.5853 15.4367 68.6276 15.7908 68.9693 16.2259C67.5383 15.3428 62.6177 15.987 61.4986 16.2515C60.3795 16.516 58.4872 17.702 58.6752 17.8428C58.8631 17.9836 59.8797 17.6124 60.7169 17.5527C60.9177 17.5399 61.1569 17.5527 61.4174 17.5826C61.4046 17.3821 61.4089 17.1133 61.5285 17.0962C61.6908 17.0749 61.6822 17.3181 61.7463 17.6252C62.0154 17.6636 62.2973 17.7148 62.5707 17.7575C62.6177 17.3223 62.8099 16.644 62.9551 16.6781C63.1046 16.7123 62.9808 17.446 63.032 17.83C63.3438 17.8769 63.63 17.9068 63.8521 17.9025C64.4886 17.8855 66.6499 17.3181 67.3547 17.1303C66.8208 17.2925 65.3813 17.8385 63.6129 19.3616C61.3619 21.3027 60.0335 23.7131 60.1659 23.777C60.2983 23.841 62.2802 21.981 63.0747 21.5501C63.8735 21.1192 65.283 20.5689 67.2906 18.7088C60.4606 26.3794 57.2272 37.0662 57.0819 39.8093C57.005 40.7735 56.9495 40.7308 57.052 41.4518C57.1204 41.9125 57.1887 42.3733 57.2485 42.8298Z" fill="#53B0E3"/>
<path d="M27.8484 30.6029C30.3985 35.1464 31.7482 39.0542 32.4274 41.9765C31.9191 41.9211 31.4065 41.8741 30.8897 41.8187C30.8769 41.8187 30.8683 41.8144 30.8555 41.8144C29.1299 31.8529 19.7883 19.6047 19.7883 19.6047C19.7883 19.6047 20.4205 20.539 20.7365 21.452C20.7793 21.58 20.8391 21.7805 20.9031 22.0322C20.6255 21.9341 20.3222 21.8743 20.2966 21.9554C20.2667 22.0535 20.4205 22.1516 21.0014 22.4119C21.074 22.702 21.1509 23.0347 21.2277 23.3846C20.7963 23.1883 20.3649 23.0603 20.3265 23.1499C20.2838 23.2438 20.7152 23.5509 21.3345 23.8837C21.6634 25.4494 21.9582 27.1558 21.8044 27.2241C21.5438 27.3308 18.9041 24.1567 18.5752 20.2063C18.5752 20.4494 18.4342 21.1405 18.2121 22.0151C17.9943 21.8231 17.6867 21.5757 17.6227 21.661C17.533 21.7805 17.6739 21.9383 18.0925 22.4887C17.8704 23.3334 17.597 24.3018 17.3109 25.1934C17.0247 24.9204 16.6616 24.6089 16.6018 24.7028C16.5164 24.835 16.7086 25.2915 17.1058 25.8205C16.8111 26.6908 16.5164 27.4417 16.2729 27.8683C15.4186 26.6396 15.7603 20.94 17.1614 17.3564C16.5676 17.9622 15.5596 18.5254 14.496 18.9264C14.1201 18.5083 13.7528 18.2694 13.6503 18.3121C13.5435 18.3547 13.5563 18.5979 13.9108 19.1312C13.6545 19.2122 13.3982 19.2848 13.1505 19.3445C13.0352 19.1397 12.8643 18.8709 12.7917 18.9008C12.6892 18.9392 12.7362 19.1354 12.8686 19.4042C11.9887 19.5834 11.207 19.5962 10.7585 19.3658C10.6603 19.144 13.5819 17.0493 16.243 16.3496C16.243 16.3496 14.8334 16.2728 14.3807 15.8718C13.9236 15.4708 13.2744 14.7882 11.3309 14.3957C11.4761 14.1526 16.0935 14.7114 17.5714 15.7822C17.8063 13.551 21.3986 10.9956 21.531 11.6056C21.6634 12.2157 20.0189 14.1014 19.4807 15.2319C22.3255 14.2763 27.9253 14.9546 27.8314 15.394C27.7801 15.6201 26.661 16.115 25.1617 16.4136C24.9097 16.0681 24.4655 15.4836 24.3544 15.5519C24.2177 15.6372 24.3672 15.8804 24.7047 16.4947C23.829 16.6397 22.8552 16.708 21.9069 16.6184C25.7085 17.6679 32.1754 21.917 32.0472 22.1346C31.9319 22.3308 29.7236 22.1004 27.1522 21.3965C26.8361 20.6457 26.174 19.144 25.9562 19.1994C25.6999 19.2634 26.0075 20.1551 26.2125 21.1235C25.8836 21.0211 25.5504 20.9144 25.2173 20.795C25.0678 20.7438 24.9225 20.6883 24.773 20.6329C24.7346 20.2063 24.6449 19.4042 24.4954 19.4127C24.316 19.4213 24.2049 19.7199 24.2434 20.4238C21.3901 19.2464 19.1561 17.6039 19.1561 17.6039C19.1561 17.6039 22.475 21.0296 27.8484 30.6029Z" fill="#53B0E3"/>
<path d="M9.72477 66.618V65.0182H14.7864V66.618V70.7392H13.0736V69.2631C12.2534 70.3808 11.0276 70.9439 9.40014 70.9439C7.83253 70.9439 6.52548 70.3979 5.47471 69.31C4.42394 68.2221 3.90283 66.8825 3.90283 65.2998C3.90283 63.7128 4.44103 62.3775 5.51316 61.2896C6.58955 60.2017 7.93505 59.6556 9.55391 59.6556C10.8012 59.6556 11.9117 60.014 12.8942 60.7307C13.8766 61.4474 14.5045 62.3476 14.7864 63.4355H12.8856C12.6592 62.8425 12.2364 62.3561 11.6255 61.9722C11.0147 61.5882 10.3228 61.3962 9.55391 61.3962C8.41345 61.3962 7.48228 61.7631 6.76895 62.5012C6.05562 63.2392 5.69256 64.1692 5.69256 65.2998C5.69256 66.4602 6.05135 67.4158 6.77322 68.1624C7.49509 68.909 8.42199 69.2801 9.55391 69.2801C10.4894 69.2801 11.2753 69.0455 11.9203 68.5805C12.5653 68.1155 12.9241 67.4627 12.9967 66.6223H9.72477V66.618Z" fill="#468FBA"/>
<path d="M23.7051 70.7391L20.3734 66.7758H18.6777V70.7391H16.8879V59.8518H18.6777H20.9372C21.9111 59.8518 22.7398 60.1931 23.4189 60.8714C24.0981 61.5497 24.4398 62.3774 24.4398 63.3501C24.4398 64.0326 24.239 64.664 23.8418 65.24C23.4403 65.8159 22.9234 66.2383 22.2913 66.507L25.8408 70.7348H23.7051V70.7391ZM18.6777 61.5327V65.1717H20.9372C21.4156 65.1717 21.8214 64.9968 22.1503 64.6427C22.4835 64.2886 22.6501 63.862 22.6501 63.3501C22.6501 62.8424 22.4835 62.4115 22.1503 62.0574C21.8172 61.7033 21.4114 61.5284 20.9372 61.5284H18.6777V61.5327Z" fill="#468FBA"/>
<path d="M33.7941 70.7391L33.0466 68.5463H28.5146L27.7842 70.7391H25.8364L29.7149 59.8518H31.8634L35.7248 70.7391H33.7941ZM29.0912 66.8654H32.4699L30.787 61.891L29.0912 66.8654Z" fill="#468FBA"/>
<path d="M43.0419 59.8518H44.8316V70.7391H43.4306L38.8388 63.3543V70.7391H37.0491V59.8518H38.4501L43.0419 67.2365V59.8518Z" fill="#468FBA"/>
<path d="M51.7597 59.8518C53.2547 59.8518 54.4977 60.3765 55.4887 61.4217C56.4797 62.467 56.9751 63.7596 56.9751 65.2954C56.9751 66.8184 56.4797 68.1068 55.4887 69.1606C54.4977 70.2143 53.2547 70.7391 51.7597 70.7391H47.7916H47.168V59.8518H48.9577H51.7597ZM51.7597 69.0283C52.7891 69.0283 53.6263 68.6742 54.2756 67.9703C54.9249 67.2664 55.2495 66.3748 55.2495 65.2954C55.2495 64.2076 54.9249 63.3117 54.2756 62.612C53.6263 61.9124 52.7891 61.5625 51.7597 61.5625H48.9577V69.0283H51.7597Z" fill="#468FBA"/>
<path d="M63.9205 70.9396C62.2803 70.9396 60.9219 70.3978 59.8413 69.3142C58.7606 68.2306 58.2224 66.891 58.2224 65.2954C58.2224 63.6999 58.7606 62.3603 59.8413 61.2767C60.9219 60.1931 62.2803 59.6513 63.9205 59.6513C65.1763 59.6513 66.2911 60.0182 67.2607 60.7477C68.2303 61.4772 68.8582 62.4243 69.1359 63.5847H67.2522C67.0258 62.9234 66.6029 62.3902 65.9921 61.9891C65.3813 61.5881 64.6893 61.3919 63.9205 61.3919C62.7587 61.3919 61.8147 61.7588 61.0928 62.4968C60.3709 63.2349 60.0121 64.1649 60.0121 65.2954C60.0121 66.426 60.3709 67.3603 61.0928 68.094C61.8147 68.8321 62.7544 69.199 63.9205 69.199C64.6893 69.199 65.377 68.9985 65.9921 68.6017C66.6029 68.2007 67.0258 67.6717 67.2522 67.0062H69.1359C68.8668 68.158 68.2431 69.1009 67.2693 69.8346C66.2911 70.5727 65.1763 70.9396 63.9205 70.9396Z" fill="#468FBA"/>
<path d="M70.6948 59.8518H72.4845V70.7391H70.6948V59.8518Z" fill="#468FBA"/>
<path d="M81.2796 59.8518V61.5625H78.5245V70.7391H76.7348V61.5625H73.9626V59.8518H78.5245H81.2796Z" fill="#468FBA"/>
<path d="M90.826 59.8518L87.1825 65.8372V70.7348H85.3928V65.8202L81.7493 59.8475H83.791L86.2812 64.1094L88.7886 59.8475H90.826V59.8518Z" fill="#468FBA"/>
<path d="M53.7673 48.2435C54.25 47.7913 54.707 47.3647 55.147 46.9551L54.6387 23.7941C54.3055 23.7045 54.1475 23.6618 53.81 23.5851L53.259 48.7256C53.3744 48.6189 53.4897 48.508 53.6007 48.4056" fill="#27507F"/>
<path d="M51.8196 50.0695C52.251 49.6642 52.6781 49.2674 53.0967 48.8749L52.5329 23.312C52.2424 23.2566 52.1271 23.2267 51.8324 23.1755L51.3113 50.5473C51.4309 50.4363 51.5505 50.3212 51.6701 50.2102" fill="#27507F"/>
<path d="M46.6981 54.9116C46.6639 54.9457 46.634 54.9756 46.5999 55.0054C46.6298 54.9756 46.6639 54.9414 46.6981 54.9116Z" fill="#27507F"/>
<path d="M47.3091 54.3271C48.4794 53.2136 49.8207 51.9466 51.1661 50.6838L50.6365 22.9921C49.1372 22.7873 47.6849 22.6806 46.1387 22.6806C43.7168 22.6806 41.4188 22.9366 39.1378 23.4315L38.762 47.5012L47.3432 54.293C47.3304 54.3058 47.3176 54.3186 47.3091 54.3271Z" fill="#27507F"/>
<path d="M35.8274 45.6454L36.2289 47.7145L35.8274 50.4534L37.1558 48.2905L37.8008 49.3954L38.2023 48.9304L46.2326 54.0327L38.7533 48.0004L38.7448 48.7L38.339 23.6064C37.9503 23.7002 37.7239 23.7557 37.3395 23.8624L36.938 46.8101L36.9294 46.3238L36.9337 46.5328L35.8274 45.6454Z" fill="#27507F"/>
<path d="M25.1104 79.3781L23.4489 77.5735H22.3212V79.3781H21.9709V74.9796H22.3212H23.5514C23.923 74.9796 24.2433 75.1076 24.5082 75.3593C24.773 75.611 24.9054 75.9182 24.9054 76.2808C24.9054 76.5837 24.8072 76.8525 24.6064 77.0871C24.4057 77.326 24.1536 77.4754 23.8461 77.5436L25.5461 79.3781H25.1104ZM22.3255 75.2953V77.262H23.5556C23.8333 77.262 24.0682 77.1639 24.269 76.9719C24.4655 76.78 24.5637 76.5496 24.5637 76.2808C24.5637 76.0078 24.4655 75.7774 24.269 75.5812C24.0725 75.3892 23.8333 75.2911 23.5556 75.2911H22.3255V75.2953Z" fill="white"/>
<path d="M27.7715 79.0666H29.9927V79.3823H27.575H27.4255V74.9839H27.7758H29.9628V75.2996H27.7758V77.0103H29.7962V77.326H27.7758V79.0666H27.7715Z" fill="white"/>
<path d="M35.2678 79.3781L34.8193 78.2603H32.5127L32.06 79.3781H31.6926L33.4824 74.9796H33.8497L35.6351 79.3781H35.2678ZM32.6409 77.9489H34.6954L33.666 75.3892L32.6409 77.9489Z" fill="white"/>
<path d="M37.976 79.0666H40.1501V79.3823H37.6257V74.9839H37.976V79.0666Z" fill="white"/>
<path d="M45.6175 79.0666H47.8386V79.3823H45.421H45.2715V74.9839H45.6217H47.8087V75.2996H45.6217V77.0103H47.6421V77.326H45.6217V79.0666H45.6175Z" fill="white"/>
<path d="M51.3198 79.4506C50.8542 79.4506 50.4698 79.3354 50.1708 79.105C49.8718 78.8747 49.718 78.559 49.718 78.1622H50.0725C50.0725 78.4651 50.1836 78.6997 50.41 78.8704C50.6364 79.041 50.9396 79.1264 51.3155 79.1264C51.6359 79.1264 51.9007 79.0496 52.1057 78.896C52.3108 78.7424 52.4175 78.5419 52.4175 78.2945C52.4175 78.1878 52.3962 78.094 52.3535 78.0001C52.3108 77.9105 52.2595 77.8337 52.1997 77.7783C52.1399 77.7185 52.0545 77.6588 51.9434 77.5991C51.8324 77.5394 51.7341 77.4924 51.6487 77.4583C51.5633 77.4242 51.4479 77.3815 51.2984 77.3346C50.8457 77.1725 50.5509 77.0487 50.4143 76.9719C50.0384 76.7501 49.8462 76.4387 49.8462 76.0377C49.8462 75.7006 49.9786 75.4319 50.2477 75.2271C50.5168 75.0223 50.8414 74.9199 51.2216 74.9199C51.6188 74.9199 51.952 75.0308 52.2211 75.2484C52.4944 75.4703 52.6311 75.7604 52.6311 76.1187H52.2809C52.2809 75.8542 52.1826 75.6409 51.9861 75.4788C51.7897 75.3167 51.5334 75.2356 51.2216 75.2356C50.9183 75.2356 50.6705 75.3081 50.4826 75.4575C50.2947 75.6068 50.1964 75.7988 50.1964 76.0334C50.1964 76.1443 50.2178 76.2424 50.2648 76.3363C50.3117 76.4301 50.363 76.5027 50.4143 76.5624C50.4698 76.6221 50.5552 76.6818 50.6748 76.7416C50.7944 76.8013 50.8927 76.8482 50.9695 76.8781C51.0464 76.908 51.166 76.9506 51.3241 77.0103C51.7854 77.181 52.0886 77.3132 52.2381 77.4071C52.5927 77.6289 52.7721 77.9276 52.7721 78.2987C52.7721 78.6443 52.6311 78.9216 52.3492 79.1349C52.0673 79.3439 51.7256 79.4506 51.3198 79.4506Z" fill="white"/>
<path d="M57.3895 74.9796V75.2953H56.0739V79.3781H55.7194V75.2953H54.4038V74.9796H56.0782H57.3895Z" fill="white"/>
<path d="M62.2033 79.3781L61.7548 78.2603H59.4483L58.9955 79.3781H58.6282L60.4179 74.9796H60.7852L62.5707 79.3781H62.2033ZM59.5764 77.9489H61.631L60.6016 75.3892L59.5764 77.9489Z" fill="white"/>
<path d="M66.8036 74.9796V75.2953H65.488V79.3781H65.1335V75.2953H63.8179V74.9796H65.4923H66.8036Z" fill="white"/>
<path d="M69.1914 79.0666H71.4126V79.3823H68.995H68.8455V74.9839H69.1957H71.3827V75.2996H69.1957V77.0103H71.2161V77.326H69.1957V79.0666H69.1914Z" fill="white"/>
<path d="M55.3477 46.6309C55.2794 46.6949 55.2153 46.7546 55.147 46.8186L55.1512 46.9594C55.2153 46.8997 55.2794 46.84 55.3435 46.7802L55.3477 46.6309Z" fill="white"/>
<path d="M55.3436 46.7717C55.2795 46.8314 55.2154 46.8912 55.1514 46.9509L55.3436 46.7717Z" fill="white"/>
<path d="M53.2633 48.5763C53.2077 48.6275 53.1522 48.6787 53.0967 48.7341L53.1009 48.8749C53.1565 48.8237 53.2077 48.7725 53.2633 48.7213V48.5763Z" fill="white"/>
<path d="M53.259 48.7213C53.2035 48.7725 53.1522 48.8237 53.0967 48.8749L53.259 48.7213Z" fill="white"/>
<path d="M51.3114 50.4022C51.2601 50.4491 51.2131 50.4961 51.1619 50.543L51.1661 50.6881C51.2131 50.6411 51.2644 50.5985 51.3114 50.5515V50.4022Z" fill="white"/>
<path d="M51.3112 50.5473C51.2643 50.5942 51.213 50.6369 51.166 50.6838L51.3112 50.5473Z" fill="white"/>
<path d="M55.8561 46.2982C57.4536 44.8093 58.5556 43.7854 58.5556 43.7854L62.1821 46.3835L67.9827 42.0576L71.7543 45.9654L73.0571 44.6557L73.7832 45.5217L75.2312 44.6557L78.9089 47.5695C75.7438 36.3708 67.0259 27.4502 55.8775 24.1183L55.4973 46.7803C55.5998 46.6864 55.5571 46.584 55.6596 46.4902" fill="white"/>
<path d="M22.5305 46.7164L28.331 42.3905L32.1027 46.2983L33.4055 44.9886L34.1316 45.8546L35.5796 44.9886L36.9294 46.0551L36.4467 24.1227C36.0068 24.2507 35.8701 24.2934 35.4387 24.4427L35.0115 45.2147L34.5502 24.7456C23.5385 28.7216 15.2434 38.1883 12.813 49.8051C16.0294 46.7889 18.9083 44.1225 18.9083 44.1225L22.5305 46.7164Z" fill="white"/>
<path d="M63.0448 48.6616L58.6965 44.5277C58.6965 44.5277 60.388 49.1096 60.388 49.3016C60.388 49.4935 60.388 51.3536 60.388 51.3536L61.1654 50.2956L64.2408 52.4372V51.5712L67.1411 52.4372L62.827 47.5055L63.0448 48.6616Z" fill="white"/>
<path d="M68.1277 46.2982C67.9654 46.4646 67.7732 42.7957 67.7732 42.7957C67.7732 42.7957 63.583 46.4518 63.395 46.7376L65.078 46.1617L64.2792 47.6036L66.0262 46.3536L65.7827 47.0832L65.441 47.7316L65.8895 47.6975L65.441 48.5934L66.9104 47.7913L66.5089 48.7214L67.6622 47.9193L71.5278 51.3664L68.5677 45.8844C68.572 45.8886 68.2901 46.1318 68.1277 46.2982Z" fill="white"/>
<path d="M75.479 45.3127L75.8805 47.3818L75.479 50.1207L76.8074 47.962L77.4524 49.0626L77.8539 48.6019L79.0713 48.2094L75.479 45.3127Z" fill="white"/>
<path d="M23.3976 48.9944L19.0493 44.8605C19.0493 44.8605 20.7408 49.4423 20.7408 49.6343C20.7408 49.8263 20.7408 51.6863 20.7408 51.6863L21.5182 50.6283L24.5936 52.77V51.9039L27.4939 52.77L23.1798 47.8383L23.3976 48.9944Z" fill="white"/>
<path d="M28.4764 46.6309C28.3141 46.7973 28.1219 43.1284 28.1219 43.1284C28.1219 43.1284 23.9316 46.7845 23.7437 47.0704L25.4266 46.4944L24.6278 47.9364L26.3748 46.6864L26.1314 47.4159L25.7897 48.0644L26.2382 48.0302L25.7897 48.9261L27.259 48.1241L26.8575 49.0541L28.0108 48.2521L31.8764 51.6992L28.9163 46.2171C28.9206 46.2214 28.6387 46.4603 28.4764 46.6309Z" fill="white"/>
<path d="M38.7276 47.4756L36.9464 46.0678L36.9421 46.5413L38.7361 47.9876L38.7276 47.4756Z" fill="white"/>
<path d="M38.7278 47.4756L38.7363 47.9876L38.7534 48.0046L38.762 47.5012L38.7278 47.4756Z" fill="white"/>
<path d="M36.9423 46.5413L36.9465 46.0678L36.9294 46.0507L36.9337 46.5371L36.9423 46.5413Z" fill="white"/>
<path d="M55.9627 14.4085L55.2878 49.8007L54.6129 13.6449L53.8996 13.2396L53.2205 51.1531L52.537 12.4717L51.9647 12.1475L51.2813 52.7444L50.5936 11.371L48.7825 10.3471L48.8636 54.4636L57.7866 54.4594V15.4409L55.9627 14.4085Z" fill="#53B0E3"/>
<path d="M43.5371 54.4636H48.8636L48.7824 10.3471L43.5371 13.7857V54.4636Z" fill="#3A6DB5"/>
<path d="M39.4623 1.13229L38.8728 46.4988L38.2791 1.79782L37.6512 2.15191L37.066 44.6089L36.4766 2.81743L35.7205 3.24405L35.1353 43.0048L34.5502 3.9053L31.9873 5.35154V54.4594H40.9146L40.9957 0.261993L39.4623 1.13229Z" fill="#3A6DB5"/>
<path d="M46.1598 54.4593H40.9146V0.257629L46.1598 3.6919V54.4593Z" fill="#53B0E3"/>
</svg>
