<svg width="20" height="20" viewBox="0 0 20 20" fill="none" xmlns="http://www.w3.org/2000/svg">
<path d="M9.8125 12.748C10.0225 12.748 10.2031 12.665 10.3643 12.5039L14.0215 8.75391C14.1484 8.62695 14.2168 8.4707 14.2168 8.28516C14.2168 7.9043 13.9141 7.60156 13.5381 7.60156C13.3525 7.60156 13.1768 7.6748 13.04 7.81152L9.81738 11.1318L6.58984 7.81152C6.45312 7.67969 6.28223 7.60156 6.0918 7.60156C5.71582 7.60156 5.41308 7.9043 5.41308 8.28516C5.41308 8.4707 5.48144 8.62695 5.6084 8.75879L9.26562 12.5039C9.43652 12.6699 9.60742 12.748 9.8125 12.748Z" fill="#AAB4BD"/>
</svg>
