<svg width="65" height="64" viewBox="0 0 65 64" fill="none" xmlns="http://www.w3.org/2000/svg">
<path fill-rule="evenodd" clip-rule="evenodd" d="M58.5 8H36.5L35.1 8.6L32.5 11.16L29.9 8.6L28.5 8H6.5L4.5 10V50L6.5 52H27.66L31.1 55.4H33.9L37.34 52H58.5L60.5 50V10L58.5 8ZM30.5 49.28L29.78 48.6L28.5 48H8.5V12H27.66L30.62 14.96L30.5 49.28ZM56.5 48H36.5L35.1 48.6L34.54 49.12V14.8L37.34 12H56.5V48ZM24.5 20H12.5V24H24.5V20ZM24.5 36H12.5V40H24.5V36ZM12.5 28H24.5V32H12.5V28ZM52.5 20H40.5V24H52.5V20ZM40.5 28H52.5V32H40.5V28ZM40.5 36H52.5V40H40.5V36Z" fill="white"/>
</svg>
