<svg width="32" height="32" viewBox="0 0 32 32" fill="none" xmlns="http://www.w3.org/2000/svg">
<path d="M22.3732 9.62634C22.5625 9.81301 22.6665 10.0677 22.6665 10.333V13.6663C22.6665 13.9316 22.5611 14.1859 22.3736 14.3734C22.1861 14.561 21.9317 14.6663 21.6665 14.6663C21.4013 14.6663 21.1469 14.561 20.9594 14.3734C20.7719 14.1859 20.6665 13.9316 20.6665 13.6663V12.7463L18.3732 15.0397C18.2809 15.1351 18.1705 15.2113 18.0485 15.2636C17.9264 15.316 17.7952 15.3435 17.6624 15.3446C17.5296 15.3457 17.398 15.3203 17.2751 15.27C17.1522 15.2196 17.0406 15.1453 16.9468 15.0514C16.8529 14.9575 16.7787 14.8458 16.7285 14.7228C16.6783 14.5999 16.653 14.4682 16.6543 14.3355C16.6555 14.2027 16.6831 14.0715 16.7356 13.9495C16.7881 13.8275 16.8643 13.7172 16.9598 13.625L19.2532 11.333H18.3332C18.068 11.333 17.8136 11.2277 17.6261 11.0401C17.4385 10.8526 17.3332 10.5982 17.3332 10.333C17.3332 10.0678 17.4385 9.81344 17.6261 9.6259C17.8136 9.43836 18.068 9.33301 18.3332 9.33301H21.6665C21.9316 9.33324 22.1858 9.43875 22.3732 9.62634ZM9.33317 21.6663C9.33317 21.9316 9.43853 22.1859 9.62606 22.3734C9.8136 22.561 10.068 22.6663 10.3332 22.6663H13.6678C13.9331 22.6663 14.1874 22.561 14.3749 22.3734C14.5625 22.1859 14.6678 21.9316 14.6678 21.6663C14.6678 21.4011 14.5625 21.1468 14.3749 20.9592C14.1874 20.7717 13.9331 20.6663 13.6678 20.6663H12.7478L15.0412 18.373C15.2232 18.1843 15.3239 17.9317 15.3215 17.6695C15.3191 17.4073 15.2138 17.1565 15.0283 16.9712C14.8428 16.7859 14.592 16.6808 14.3298 16.6787C14.0676 16.6765 13.815 16.7774 13.6265 16.9597L11.3332 19.2503V18.3303C11.3332 18.0651 11.2278 17.8108 11.0403 17.6232C10.8527 17.4357 10.5984 17.3303 10.3332 17.3303C10.068 17.3303 9.8136 17.4357 9.62606 17.6232C9.43853 17.8108 9.33317 18.0651 9.33317 18.3303V21.6637V21.6663ZM2.6665 8.99967C2.6665 8.02721 3.05281 7.09458 3.74045 6.40695C4.42808 5.71932 5.36071 5.33301 6.33317 5.33301H25.6665C26.639 5.33301 27.5716 5.71932 28.2592 6.40695C28.9469 7.09458 29.3332 8.02721 29.3332 8.99967V22.9997C29.3332 23.4812 29.2383 23.958 29.0541 24.4028C28.8698 24.8477 28.5997 25.2519 28.2592 25.5924C27.9187 25.9329 27.5145 26.203 27.0697 26.3872C26.6248 26.5715 26.148 26.6663 25.6665 26.6663H6.33317C5.85166 26.6663 5.37486 26.5715 4.93 26.3872C4.48514 26.203 4.08093 25.9329 3.74045 25.5924C3.39996 25.2519 3.12988 24.8477 2.94561 24.4028C2.76135 23.958 2.6665 23.4812 2.6665 22.9997V8.99967ZM6.33317 7.33301C5.41317 7.33301 4.6665 8.07967 4.6665 8.99967V22.9997C4.6665 23.9197 5.41317 24.6663 6.33317 24.6663H25.6665C26.5865 24.6663 27.3332 23.9197 27.3332 22.9997V8.99967C27.3332 8.07967 26.5865 7.33301 25.6665 7.33301H6.33317Z" fill="white"/>
</svg>
