<svg width="65" height="64" viewBox="0 0 65 64" fill="none" xmlns="http://www.w3.org/2000/svg">
<path d="M52.5 4H16.5C15.4391 4 14.4217 4.42143 13.6716 5.17157C12.9214 5.92172 12.5 6.93913 12.5 8V16H8.5V20H12.5V30H8.5V34H12.5V44H8.5V48H12.5V56C12.5 57.0609 12.9214 58.0783 13.6716 58.8284C14.4217 59.5786 15.4391 60 16.5 60H52.5C53.5609 60 54.5783 59.5786 55.3284 58.8284C56.0786 58.0783 56.5 57.0609 56.5 56V8C56.5 6.93913 56.0786 5.92172 55.3284 5.17157C54.5783 4.42143 53.5609 4 52.5 4ZM52.5 56H16.5V48H20.5V44H16.5V34H20.5V30H16.5V20H20.5V16H16.5V8H52.5V56Z" fill="white"/>
<path d="M28.5 16H44.5V20H28.5V16ZM28.5 30H44.5V34H28.5V30ZM28.5 44H44.5V48H28.5V44Z" fill="white"/>
</svg>
