<svg width="65" height="64" viewBox="0 0 65 64" fill="none" xmlns="http://www.w3.org/2000/svg">
<path d="M55.5 19.375H46.275C47.125 18.0375 47.625 16.45 47.625 14.75C47.625 9.99375 43.7562 6.125 39 6.125C36.4125 6.125 34.0812 7.275 32.5 9.0875C30.9188 7.275 28.5875 6.125 26 6.125C21.2437 6.125 17.375 9.99375 17.375 14.75C17.375 16.45 17.8688 18.0375 18.725 19.375H9.5C8.39375 19.375 7.5 20.2688 7.5 21.375V33.875C7.5 34.15 7.725 34.375 8 34.375H10.5V55.875C10.5 56.9813 11.3937 57.875 12.5 57.875H52.5C53.6063 57.875 54.5 56.9813 54.5 55.875V34.375H57C57.275 34.375 57.5 34.15 57.5 33.875V21.375C57.5 20.2688 56.6063 19.375 55.5 19.375ZM34.625 14.75C34.625 12.3375 36.5875 10.375 39 10.375C41.4125 10.375 43.375 12.3375 43.375 14.75C43.375 17.1625 41.4125 19.125 39 19.125H34.625V14.75ZM26 10.375C28.4125 10.375 30.375 12.3375 30.375 14.75V19.125H26C23.5875 19.125 21.625 17.1625 21.625 14.75C21.625 12.3375 23.5875 10.375 26 10.375ZM11.75 30.125V23.625H30.375V30.125H11.75ZM14.75 34.375H30.375V53.625H14.75V34.375ZM50.25 53.625H34.625V34.375H50.25V53.625ZM53.25 30.125H34.625V23.625H53.25V30.125Z" fill="white"/>
</svg>
