<svg width="32" height="32" viewBox="0 0 32 32" fill="none" xmlns="http://www.w3.org/2000/svg">
<path d="M15.9999 0.444336C7.40961 0.444336 0.444336 7.40961 0.444336 15.9999C0.444336 24.5902 7.40961 31.5554 15.9999 31.5554C24.5902 31.5554 31.5554 24.5902 31.5554 15.9999C31.5554 7.40961 24.5902 0.444336 15.9999 0.444336ZM23.4756 12.17C23.486 12.3332 23.486 12.5034 23.486 12.67C23.486 17.7673 19.6041 23.6388 12.5103 23.6388C10.3228 23.6388 8.29503 23.0034 6.5867 21.9096C6.8992 21.9443 7.19781 21.9582 7.51725 21.9582C9.32281 21.9582 10.9825 21.3471 12.3054 20.3124C10.611 20.2777 9.18739 19.1666 8.70128 17.6388C9.29503 17.7256 9.82975 17.7256 10.4409 17.5693C9.56838 17.3921 8.78418 16.9182 8.22148 16.2283C7.65877 15.5384 7.35228 14.6749 7.35406 13.7846V13.736C7.86447 14.0242 8.46517 14.2013 9.09364 14.2256C8.56532 13.8735 8.13204 13.3965 7.83222 12.8368C7.53241 12.2771 7.37532 11.6522 7.37489 11.0173C7.37489 10.2985 7.56239 9.64225 7.8992 9.07281C8.86761 10.2649 10.076 11.24 11.4459 11.9345C12.8159 12.629 14.3166 13.0275 15.8506 13.1041C15.3054 10.4825 17.2638 8.361 19.6179 8.361C20.7291 8.361 21.7291 8.82628 22.4339 9.57628C23.3054 9.41308 24.1388 9.0867 24.8818 8.6492C24.5936 9.54156 23.9895 10.295 23.1874 10.7707C23.9652 10.6874 24.7152 10.4721 25.4096 10.17C24.8853 10.9409 24.2291 11.6249 23.4756 12.17Z" fill="white"/>
</svg>
