<svg width="32" height="32" viewBox="0 0 32 32" fill="none" xmlns="http://www.w3.org/2000/svg">
<path d="M24 5.33301H8C5.79086 5.33301 4 7.12387 4 9.33301V22.6663C4 24.8755 5.79086 26.6663 8 26.6663H24C26.2091 26.6663 28 24.8755 28 22.6663V9.33301C28 7.12387 26.2091 5.33301 24 5.33301Z" stroke="white" stroke-width="2" stroke-linecap="round" stroke-linejoin="round"/>
<path d="M12.0002 15.9993C13.4729 15.9993 14.6668 14.8054 14.6668 13.3327C14.6668 11.8599 13.4729 10.666 12.0002 10.666C10.5274 10.666 9.3335 11.8599 9.3335 13.3327C9.3335 14.8054 10.5274 15.9993 12.0002 15.9993Z" stroke="white" stroke-width="2" stroke-linecap="round" stroke-linejoin="round"/>
<path d="M20.0002 10.666H22.6668M20.0002 15.9993H22.6668M9.3335 21.3327H22.6668" stroke="white" stroke-width="2" stroke-linecap="round" stroke-linejoin="round"/>
</svg>
