<svg width="40" height="40" viewBox="0 0 40 40" fill="none" xmlns="http://www.w3.org/2000/svg">
<path d="M20.3965 29.8091L20.8436 30.7036L20.3965 29.8091ZM19.6033 29.8091L20.0504 28.9146L20.0504 28.9146L19.6033 29.8091ZM30.6666 14.9999C30.6666 18.9707 28.5617 22.1756 26.1005 24.5652C23.6425 26.9517 20.9267 28.4262 19.9494 28.9146L20.8436 30.7036C21.9077 30.1717 24.827 28.5892 27.4937 26.0001C30.1572 23.414 32.6666 19.7245 32.6666 14.9999H30.6666ZM19.9999 4.33325C25.891 4.33325 30.6666 9.10888 30.6666 14.9999H32.6666C32.6666 8.00431 26.9955 2.33325 19.9999 2.33325V4.33325ZM9.33325 14.9999C9.33325 9.10888 14.1089 4.33325 19.9999 4.33325V2.33325C13.0043 2.33325 7.33325 8.00431 7.33325 14.9999H9.33325ZM20.0504 28.9146C19.0731 28.4262 16.3574 26.9517 13.8994 24.5652C11.4382 22.1756 9.33325 18.9707 9.33325 14.9999H7.33325C7.33325 19.7245 9.84265 23.414 12.5062 26.0001C15.1728 28.5892 18.0921 30.1717 19.1562 30.7036L20.0504 28.9146ZM19.9494 28.9146C19.9564 28.9111 19.9745 28.9046 19.9999 28.9046C20.0254 28.9046 20.0434 28.9111 20.0504 28.9146L19.1562 30.7036C19.6925 30.9717 20.3073 30.9717 20.8436 30.7036L19.9494 28.9146ZM23.9999 14.9999C23.9999 17.2091 22.2091 18.9999 19.9999 18.9999V20.9999C23.3136 20.9999 25.9999 18.3136 25.9999 14.9999H23.9999ZM19.9999 10.9999C22.2091 10.9999 23.9999 12.7908 23.9999 14.9999H25.9999C25.9999 11.6862 23.3136 8.99992 19.9999 8.99992V10.9999ZM15.9999 14.9999C15.9999 12.7908 17.7908 10.9999 19.9999 10.9999V8.99992C16.6862 8.99992 13.9999 11.6862 13.9999 14.9999H15.9999ZM19.9999 18.9999C17.7908 18.9999 15.9999 17.2091 15.9999 14.9999H13.9999C13.9999 18.3136 16.6862 20.9999 19.9999 20.9999V18.9999Z" fill="#202D3E"/>
<path d="M32.9904 29.1667C34.3069 29.9268 35 30.7891 35 31.6667C35 32.5444 34.3069 33.4067 32.9904 34.1667C31.6739 34.9268 29.7803 35.558 27.5 35.9969C25.2197 36.4357 22.6331 36.6667 20 36.6667C17.367 36.6667 14.7803 36.4357 12.5 35.9969C10.2197 35.558 8.32615 34.9268 7.00962 34.1667C5.69309 33.4067 5 32.5444 5 31.6667C5 30.7891 5.69309 29.9268 7.00962 29.1667" stroke="#202D3E" stroke-width="2" stroke-linecap="round"/>
</svg>
